<svg width="480" height="400" viewBox="0 0 480 400" fill="none" xmlns="http://www.w3.org/2000/svg">
<g clip-path="url(#clip0)">
<path fill-rule="evenodd" clip-rule="evenodd" d="M480 -0.000107422L446 122.22L444 129.39L434.28 164.29L432.28 171.46L422.56 206.35L420.56 213.52L411.31 246.72L409.91 251.72C407.825 258.331 405.351 264.812 402.5 271.13C383.21 313.86 347.97 345.86 305.8 362.66C264.6 379.002 218.96 380.312 176.89 366.36L168.7 363.67C153.165 358.586 138.336 351.553 124.57 342.74C122.823 341.613 121.087 340.46 119.36 339.28C93.9019 321.775 73.0309 298.4 58.51 271.13C54.3152 263.254 50.686 255.09 47.65 246.7C35.0735 212.474 33.2763 175.218 42.5 139.94C43.1667 137.273 43.9267 134.64 44.78 132.04L55.57 90.5799L70.85 31.8899L79.17 -0.110107H205.48H282.72L480 -0.000107422Z" fill="url(#paint0_linear)"/>
<path d="M402.47 271.15C383.18 313.88 347.94 345.88 305.77 362.68C264.57 379.022 218.93 380.332 176.86 366.38L168.67 363.69C153.135 358.606 138.306 351.573 124.54 342.76C122.793 341.633 121.057 340.48 119.33 339.3C93.8719 321.795 73.0009 298.42 58.48 271.15H402.47Z" fill="url(#paint1_linear)"/>
<path d="M297.24 186.41H218.35V279.56H297.24V186.41Z" fill="url(#paint2_linear)"/>
<path d="M294.13 245.64H221.47V271.96H294.13V245.64Z" stroke="#1F65A6" stroke-miterlimit="10"/>
<path d="M248.22 248.08H267.38C267.38 248.897 267.055 249.68 266.478 250.258C265.9 250.836 265.117 251.16 264.3 251.16H251.3C250.483 251.16 249.7 250.836 249.122 250.258C248.545 249.68 248.22 248.897 248.22 248.08V248.08Z" stroke="#1F65A6" stroke-miterlimit="10"/>
<path d="M294.13 217.37H221.47V243.69H294.13V217.37Z" stroke="#1F65A6" stroke-miterlimit="10"/>
<path d="M248.22 219.81H267.38C267.38 220.627 267.055 221.41 266.478 221.988C265.9 222.566 265.117 222.89 264.3 222.89H251.3C250.483 222.89 249.7 222.566 249.122 221.988C248.545 221.41 248.22 220.627 248.22 219.81V219.81Z" stroke="#1F65A6" stroke-miterlimit="10"/>
<path d="M294.13 189.03H221.47V215.35H294.13V189.03Z" stroke="#1F65A6" stroke-miterlimit="10"/>
<path d="M248.22 191.47H267.38C267.38 191.874 267.3 192.275 267.146 192.649C266.991 193.022 266.764 193.362 266.478 193.648C266.192 193.934 265.852 194.161 265.479 194.316C265.105 194.47 264.704 194.55 264.3 194.55H251.3C250.896 194.55 250.495 194.47 250.121 194.316C249.748 194.161 249.408 193.934 249.122 193.648C248.836 193.362 248.609 193.022 248.454 192.649C248.3 192.275 248.22 191.874 248.22 191.47Z" stroke="#1F65A6" stroke-miterlimit="10"/>
<path d="M362.51 128.7H301.1V279.56H362.51V128.7Z" fill="url(#paint3_linear)"/>
<path d="M359.39 245.64H304.21V271.96H359.39V245.64Z" stroke="#1F65A6" stroke-miterlimit="10"/>
<path d="M321.87 248.08H341C341 248.897 340.676 249.68 340.098 250.258C339.52 250.836 338.737 251.16 337.92 251.16H325C324.183 251.16 323.4 250.836 322.822 250.258C322.245 249.68 321.92 248.897 321.92 248.08V248.08H321.87Z" stroke="#1F65A6" stroke-miterlimit="10"/>
<path d="M359.39 217.37H304.21V243.69H359.39V217.37Z" stroke="#1F65A6" stroke-miterlimit="10"/>
<path d="M321.87 219.81H341C341.003 220.615 340.691 221.389 340.13 221.967C339.569 222.544 338.805 222.879 338 222.9H325C324.183 222.9 323.4 222.576 322.822 221.998C322.245 221.42 321.92 220.637 321.92 219.82V219.82L321.87 219.81Z" stroke="#1F65A6" stroke-miterlimit="10"/>
<path d="M359.39 189.03H304.21V215.35H359.39V189.03Z" stroke="#1F65A6" stroke-miterlimit="10"/>
<path d="M321.87 191.47H341C341 191.874 340.92 192.275 340.766 192.649C340.611 193.022 340.384 193.362 340.098 193.648C339.812 193.934 339.472 194.161 339.099 194.316C338.725 194.47 338.324 194.55 337.92 194.55H325C324.596 194.55 324.195 194.47 323.821 194.316C323.448 194.161 323.108 193.934 322.822 193.648C322.536 193.362 322.309 193.022 322.154 192.649C322 192.275 321.92 191.874 321.92 191.47H321.87Z" stroke="#1F65A6" stroke-miterlimit="10"/>
<path d="M359.39 160.69H304.21V187.01H359.39V160.69Z" stroke="#1F65A6" stroke-miterlimit="10"/>
<path d="M321.87 163.13H341C341 163.947 340.676 164.73 340.098 165.308C339.52 165.885 338.737 166.21 337.92 166.21H325C324.183 166.21 323.4 165.885 322.822 165.308C322.245 164.73 321.92 163.947 321.92 163.13V163.13H321.87Z" stroke="#1F65A6" stroke-miterlimit="10"/>
<path d="M359.39 132.38H304.21V158.7H359.39V132.38Z" stroke="#1F65A6" stroke-miterlimit="10"/>
<path d="M321.87 134.82H341C341 135.623 340.687 136.395 340.126 136.97C339.566 137.546 338.803 137.879 338 137.9H325C324.183 137.9 323.4 137.576 322.822 136.998C322.245 136.42 321.92 135.637 321.92 134.82V134.82H321.87Z" stroke="#1F65A6" stroke-miterlimit="10"/>
<g opacity="0.75">
<path opacity="0.75" d="M246.17 192.82L207.51 242.82V246.82H132.22C124.18 224.599 110.2 205.008 91.8 190.18C84.8 184.57 77.23 179.69 70.31 173.99C58.9205 164.55 49.4753 152.985 42.5 139.94C43.1667 137.273 43.9267 134.64 44.78 132.04L55.57 90.5799L70.85 31.8899L79.17 -0.110107H205.48C219.48 14.3599 226.23 35.8899 221.6 55.5899C218.95 66.8799 213.08 77.1399 209.32 88.1099C197.12 123.86 216 170.16 246.17 192.82Z" fill="url(#paint4_linear)"/>
</g>
<path d="M457.42 80.1599C456.72 82.5299 456.01 84.9299 455.29 87.3399H387L386 80.1599H457.42Z" fill="url(#paint5_linear)"/>
<path d="M445.95 122.22L443.96 129.39H386.96L385.95 122.22H445.95Z" fill="url(#paint6_linear)"/>
<path d="M434.24 164.29L432.24 171.46H386.96L385.95 164.29H434.24Z" fill="url(#paint7_linear)"/>
<path d="M422.52 206.35L420.53 213.52H386.96L385.95 206.35H422.52Z" fill="url(#paint8_linear)"/>
<path d="M440.45 57.5H434.18V80.24H440.45V57.5Z" fill="url(#paint9_linear)"/>
<path d="M446.8 57.5H440.53V80.24H446.8V57.5Z" fill="url(#paint10_linear)"/>
<path d="M453.88 46.52H448.96V80.24H453.88V46.52Z" fill="url(#paint11_linear)"/>
<path d="M427.64 141.57H412.35V164.21H427.64V141.57Z" fill="url(#paint12_linear)"/>
<path d="M428.17 141.62H411.83V148.34H428.17V141.62Z" fill="url(#paint13_linear)"/>
<path d="M440 57.8501C439.93 65.3001 439.95 72.7601 439.88 80.2101C439.88 80.3427 439.933 80.4699 440.026 80.5637C440.12 80.6574 440.247 80.7101 440.38 80.7101C440.513 80.7101 440.64 80.6574 440.734 80.5637C440.827 80.4699 440.88 80.3427 440.88 80.2101C440.95 72.7601 440.93 65.3001 441 57.8501C441 57.7175 440.947 57.5903 440.854 57.4965C440.76 57.4028 440.633 57.3501 440.5 57.3501C440.367 57.3501 440.24 57.4028 440.146 57.4965C440.053 57.5903 440 57.7175 440 57.8501Z" fill="#1F65A6"/>
<path d="M399.66 186.33H396.52V206.29H399.66V186.33Z" fill="url(#paint14_linear)"/>
<path d="M406.01 178.15H399.74V206.28H406.01V178.15Z" fill="url(#paint15_linear)"/>
<path d="M399.09 187.05C399.09 193.45 399.36 199.85 399.09 206.24C399.09 206.88 400.09 206.88 400.09 206.24C400.34 199.85 400.04 193.45 400.09 187.05C400.09 186.917 400.037 186.79 399.944 186.696C399.85 186.603 399.723 186.55 399.59 186.55C399.457 186.55 399.33 186.603 399.236 186.696C399.143 186.79 399.09 186.917 399.09 187.05Z" fill="#1F65A6"/>
<path d="M412.1 178.15H405.83V206.28H412.1V178.15Z" fill="url(#paint16_linear)"/>
<path d="M405.31 178.58C405.25 187.8 405.31 197.02 405.2 206.24C405.2 206.373 405.253 206.5 405.346 206.594C405.44 206.687 405.567 206.74 405.7 206.74C405.833 206.74 405.96 206.687 406.054 206.594C406.147 206.5 406.2 206.373 406.2 206.24C406.27 197.02 406.25 187.8 406.31 178.58C406.31 178.447 406.257 178.32 406.164 178.227C406.07 178.133 405.943 178.08 405.81 178.08C405.677 178.08 405.55 178.133 405.456 178.227C405.363 178.32 405.31 178.447 405.31 178.58Z" fill="#1F65A6"/>
<path d="M407.97 107.52H395.4V122.18H407.97V107.52Z" fill="url(#paint17_linear)"/>
<path d="M414.15 95.6399H408.1V122.18H414.15V95.6399Z" fill="url(#paint18_linear)"/>
<path d="M407.58 107.74C407.45 112.55 407.48 117.35 407.35 122.16C407.35 122.293 407.403 122.42 407.496 122.514C407.59 122.607 407.717 122.66 407.85 122.66C407.983 122.66 408.11 122.607 408.204 122.514C408.297 122.42 408.35 122.293 408.35 122.16C408.48 117.35 408.45 112.55 408.58 107.74C408.58 107.1 407.58 107.1 407.58 107.74Z" fill="#1F65A6"/>
<path d="M420.15 101.34H414.1V122.18H420.15V101.34Z" fill="url(#paint19_linear)"/>
<path d="M413.58 102.09C413.41 108.78 413.58 115.47 413.36 122.16C413.36 122.8 414.36 122.8 414.36 122.16C414.54 115.47 414.41 108.78 414.58 102.09C414.58 101.45 413.58 101.45 413.58 102.09Z" fill="#1F65A6"/>
<path d="M435.69 122.39C439.959 122.39 443.42 118.929 443.42 114.66C443.42 110.391 439.959 106.93 435.69 106.93C431.421 106.93 427.96 110.391 427.96 114.66C427.96 118.929 431.421 122.39 435.69 122.39Z" fill="url(#paint20_linear)"/>
<path d="M414 148.7C418.08 148.87 422.17 148.84 426.26 148.84C426.393 148.84 426.52 148.787 426.614 148.694C426.707 148.6 426.76 148.473 426.76 148.34C426.76 148.207 426.707 148.08 426.614 147.986C426.52 147.893 426.393 147.84 426.26 147.84C422.17 147.84 418.08 147.84 414 147.7C413.35 147.7 413.35 148.7 414 148.7Z" fill="#1F65A6"/>
<path fill-rule="evenodd" clip-rule="evenodd" d="M414.14 80.31H402.82L408.46 68.98L414.14 80.31Z" fill="url(#paint21_linear)"/>
<path d="M430.38 67.05H386.58V68.93H430.38V67.05Z" fill="url(#paint22_linear)"/>
<path d="M394.39 58.3601H388.03V67.1001H394.39V58.3601Z" fill="url(#paint23_linear)"/>
<path d="M398.28 61.3301H395V67.1001H398.28V61.3301Z" fill="url(#paint24_linear)"/>
<path d="M421.65 61.3301H418.37V67.1001H421.65V61.3301Z" fill="url(#paint25_linear)"/>
<path d="M425.61 61.3301H422.33V67.1001H425.61V61.3301Z" fill="url(#paint26_linear)"/>
<path d="M429.05 61.3301H425.77V67.1001H429.05V61.3301Z" fill="url(#paint27_linear)"/>
<path d="M427.36 55.51H424.08V61.28H427.36V55.51Z" fill="url(#paint28_linear)"/>
<path d="M388.69 67.6201H393.77C393.903 67.6201 394.03 67.5674 394.124 67.4737C394.217 67.3799 394.27 67.2527 394.27 67.1201C394.27 66.9875 394.217 66.8603 394.124 66.7666C394.03 66.6728 393.903 66.6201 393.77 66.6201H388.69C388.557 66.6201 388.43 66.6728 388.336 66.7666C388.243 66.8603 388.19 66.9875 388.19 67.1201C388.19 67.2527 388.243 67.3799 388.336 67.4737C388.43 67.5674 388.557 67.6201 388.69 67.6201Z" fill="#1F65A6"/>
<path d="M395.49 67.6201H397.82C397.953 67.6201 398.08 67.5674 398.174 67.4737C398.267 67.3799 398.32 67.2527 398.32 67.1201C398.32 66.9875 398.267 66.8603 398.174 66.7666C398.08 66.6728 397.953 66.6201 397.82 66.6201H395.49C395.357 66.6201 395.23 66.6728 395.136 66.7666C395.043 66.8603 394.99 66.9875 394.99 67.1201C394.99 67.2527 395.043 67.3799 395.136 67.4737C395.23 67.5674 395.357 67.6201 395.49 67.6201Z" fill="#1F65A6"/>
<path d="M424.55 61.79H426.88C427.013 61.79 427.14 61.7374 427.234 61.6436C427.327 61.5498 427.38 61.4226 427.38 61.29C427.38 61.1574 427.327 61.0303 427.234 60.9365C427.14 60.8427 427.013 60.79 426.88 60.79H424.55C424.417 60.79 424.29 60.8427 424.196 60.9365C424.103 61.0303 424.05 61.1574 424.05 61.29C424.05 61.4226 424.103 61.5498 424.196 61.6436C424.29 61.7374 424.417 61.79 424.55 61.79Z" fill="#1F65A6"/>
<path d="M418.72 67.6201H428.9C429.033 67.6201 429.16 67.5674 429.254 67.4737C429.347 67.3799 429.4 67.2527 429.4 67.1201C429.4 66.9875 429.347 66.8603 429.254 66.7666C429.16 66.6728 429.033 66.6201 428.9 66.6201H418.72C418.587 66.6201 418.46 66.6728 418.366 66.7666C418.273 66.8603 418.22 66.9875 418.22 67.1201C418.22 67.2527 418.273 67.3799 418.366 67.4737C418.46 67.5674 418.587 67.6201 418.72 67.6201Z" fill="#1F65A6"/>
<path d="M263.17 23.28H196.11C173.124 23.28 154.49 41.9139 154.49 64.9C154.49 87.8861 173.124 106.52 196.11 106.52H263.17C286.156 106.52 304.79 87.8861 304.79 64.9C304.79 41.9139 286.156 23.28 263.17 23.28Z" fill="url(#paint29_linear)"/>
<path d="M258.21 388.6L258.26 250.68H242.26L242.38 388.6H258.21Z" fill="#89B7F0"/>
<path d="M208.75 384.87H291.75C292.723 384.87 293.657 385.257 294.345 385.945C295.033 386.633 295.42 387.567 295.42 388.54H205.08C205.08 387.567 205.467 386.633 206.155 385.945C206.843 385.257 207.777 384.87 208.75 384.87Z" fill="#89B7F0"/>
<path d="M164.73 242.63C164.316 242.68 163.897 242.66 163.49 242.57C149.44 239.43 119.41 233.11 107.2 228.78C105.567 228.324 104.047 227.53 102.74 226.45C100.55 224.36 96.4 205.9 96.12 201.12L116.34 194.94C116.91 199.16 117.19 206.46 117.48 209.86C117.75 212.86 117.97 216.22 120.16 218.3C121.464 219.385 122.984 220.18 124.62 220.63C136.56 224.87 152.41 230.33 163.44 234.89C164.237 235.218 165.126 235.242 165.94 234.96L175.02 231.86C175.376 231.74 175.756 231.713 176.125 231.782C176.495 231.85 176.84 232.011 177.13 232.25L183.77 237.79C184.009 237.989 184.174 238.264 184.238 238.569C184.301 238.874 184.26 239.192 184.12 239.47L182.67 242.37C182.522 242.668 182.316 242.934 182.063 243.15C181.81 243.367 181.516 243.53 181.198 243.63C180.881 243.73 180.546 243.764 180.215 243.732C179.883 243.699 179.562 243.6 179.27 243.44L176.11 241.72C175.609 241.449 175.036 241.34 174.47 241.41L164.73 242.63Z" fill="#E4B69D"/>
<path d="M149.43 374.24C149.57 379.58 148.86 385.1 148.86 387.83H184C185.59 386.71 182.94 384.29 181.94 384.03C174.82 382.23 168.18 380.28 162.06 376.22C162.06 376.22 159.01 370.89 155.92 370.89C151.07 370.89 149.43 374.24 149.43 374.24Z" fill="#1B9880"/>
<path d="M130.63 374.24C130.76 379.58 130.05 385.1 130.05 387.83H165.19C166.78 386.71 164.14 384.29 163.13 384.03C156.01 382.23 148.13 380.28 142 376.22C142 376.22 140.21 370.89 137.12 370.89C132.26 370.89 130.63 374.24 130.63 374.24Z" fill="#1B9880"/>
<path d="M13.36 388.07L45.73 284.12H49.71L17.39 388.15L13.36 388.07Z" fill="url(#paint30_linear)"/>
<path d="M111.38 388.07L98.98 284.12H102.95L115.4 388.15L111.38 388.07Z" fill="url(#paint31_linear)"/>
<path d="M160.17 290.55H37.17L17.66 196.1H63.42L81.41 280.73H159.44L160.17 290.55Z" fill="url(#paint32_linear)"/>
<path d="M97.28 260.79C117.42 259.45 142.66 257.26 156.01 258.79C156.01 258.79 174.38 257.73 171.92 283.41C169.35 310.35 162.99 361.13 162.72 376.46H149.37C150.75 349.17 146.8 328.05 148.04 303.85C148.42 296.55 148.8 289.19 150.58 282.09L72.39 283.74L97.28 260.79Z" fill="#185DA3"/>
<path d="M143.56 376.6C143.38 368.33 143.35 312.19 142.45 289.69C142.24 284.26 144 263.07 130.93 260.78C115.02 257.98 95.24 258.78 94.93 258.66L46.98 253.66C46.98 253.66 41.68 280.15 60.98 283.33C80.28 286.51 120.32 285.15 120.32 285.15C120.13 293.49 119.97 311.85 122.44 321.74C124.91 331.63 130.36 354.66 130.62 376.64L143.56 376.6Z" fill="#185DA3"/>
<path d="M42.84 269.27C41.66 244.62 47.52 209.27 63.12 182.19C77.35 157.46 92.78 146.1 103.12 145.72C112.66 145.37 121.38 161.15 121.66 172.04C121.8 177.21 118.93 187.49 116.98 192.04C116.9 194.57 116.89 199.04 116.89 199.04C116.89 199.04 114.78 201.3 113.36 202.5C108.83 214.42 103.63 226.79 101 235.34C98.6053 242.999 97.0955 250.907 96.5 258.91C96.5 258.91 84.5 256.39 75.31 262.62C61.27 272.17 42.84 269.27 42.84 269.27Z" fill="#E84855"/>
<path d="M153.72 242.63C153.306 242.68 152.887 242.66 152.48 242.57C138.48 239.43 108.4 233.11 96.19 228.78C94.5568 228.324 93.0375 227.53 91.73 226.45C89.54 224.36 85.39 205.9 85.11 201.12L105.33 194.94C105.9 199.16 106.18 206.46 106.48 209.86C106.74 212.86 106.96 216.22 109.15 218.3C110.455 219.383 111.975 220.177 113.61 220.63C125.55 224.87 141.4 230.33 152.43 234.89C153.227 235.218 154.116 235.242 154.93 234.96L164.01 231.86C164.366 231.74 164.746 231.713 165.116 231.782C165.485 231.85 165.83 232.011 166.12 232.25L172.76 237.79C173.001 237.988 173.167 238.263 173.231 238.568C173.294 238.874 173.252 239.192 173.11 239.47L171.66 242.37C171.512 242.668 171.306 242.934 171.053 243.15C170.8 243.367 170.506 243.53 170.188 243.63C169.871 243.73 169.536 243.764 169.205 243.732C168.873 243.699 168.552 243.6 168.26 243.44L165.1 241.72C164.599 241.449 164.026 241.34 163.46 241.41L153.72 242.63Z" fill="#E4B69D"/>
<path d="M108.45 217.74C109.45 221.97 115.31 222.92 118.76 224.15C124.13 226.06 129.53 227.88 134.94 229.68C139.56 231.22 144.183 232.74 148.81 234.24C152.29 235.36 154.27 235.94 158.02 234.62C158.62 234.4 158.36 233.44 157.75 233.62C154 234.95 152.19 234.25 148.75 233.13C144.61 231.797 140.477 230.443 136.35 229.07C131.44 227.43 126.53 225.78 121.64 224.07C119.52 223.32 117.4 222.57 115.29 221.79C112.96 220.93 110.08 220.26 109.44 217.45C109.29 216.82 108.33 217.09 108.44 217.71L108.45 217.74Z" fill="#CF987C"/>
<path d="M142.88 286.52C142.75 280.85 142.44 274.82 140.66 269.39C138.78 263.69 134.51 260.59 128.66 259.97C122 259.26 115.22 259.21 108.54 258.86L100.15 258.43C99.51 258.43 99.51 259.43 100.15 259.43L122.55 260.59C128.05 260.87 134.05 260.69 137.68 265.59C141.8 271.18 141.76 279.86 141.92 286.5C141.92 287.14 142.92 287.15 142.92 286.5L142.88 286.52Z" fill="#1C3A67"/>
<path d="M151 381C153.273 381.667 155.537 382.333 157.79 383C160.2 383.75 164.06 384.23 163.68 387.61C163.6 388.25 164.6 388.24 164.68 387.61C164.822 386.719 164.647 385.806 164.184 385.031C163.722 384.256 163.002 383.668 162.15 383.37C158.591 382.029 154.954 380.904 151.26 380C151.194 379.983 151.126 379.979 151.059 379.988C150.992 379.998 150.927 380.02 150.868 380.055C150.81 380.089 150.759 380.134 150.718 380.189C150.677 380.243 150.647 380.304 150.63 380.37C150.613 380.436 150.609 380.504 150.618 380.571C150.628 380.638 150.65 380.703 150.685 380.762C150.719 380.82 150.764 380.871 150.819 380.912C150.873 380.953 150.934 380.983 151 381Z" fill="#1C3A67"/>
<path d="M79.44 166.4C79.18 177.06 81.94 187.4 83.86 197.84C83.98 198.47 84.94 198.21 84.86 197.58C82.96 187.25 80.22 176.97 80.48 166.4C80.48 166.267 80.4273 166.14 80.3335 166.046C80.2398 165.953 80.1126 165.9 79.98 165.9C79.8474 165.9 79.7202 165.953 79.6264 166.046C79.5327 166.14 79.48 166.267 79.48 166.4H79.44Z" fill="#B83943"/>
<path d="M103.58 177.88L104.77 192.58C104.77 193.22 105.77 193.23 105.77 192.58L104.58 177.88C104.58 177.25 103.58 177.24 103.58 177.88Z" fill="#B83943"/>
<path d="M115.57 192.22C114.503 195.44 113.4 198.647 112.26 201.84C112.04 202.45 113.01 202.71 113.26 202.11C114.4 198.91 115.503 195.7 116.57 192.48C116.77 191.87 115.81 191.61 115.57 192.22Z" fill="#B83943"/>
<path d="M188.45 388.6L188.5 250.68H172.5L172.62 388.6H188.45Z" fill="url(#paint33_linear)"/>
<path d="M187.17 254.71C182.73 254.71 178.28 254.65 173.84 254.71C173.707 254.71 173.58 254.763 173.486 254.856C173.393 254.95 173.34 255.077 173.34 255.21C173.34 255.343 173.393 255.47 173.486 255.564C173.58 255.657 173.707 255.71 173.84 255.71C178.28 255.61 182.73 255.71 187.17 255.71C187.303 255.71 187.43 255.657 187.524 255.564C187.617 255.47 187.67 255.343 187.67 255.21C187.67 255.077 187.617 254.95 187.524 254.856C187.43 254.763 187.303 254.71 187.17 254.71Z" fill="#1F65A6"/>
<path d="M139 384.87H222C222.973 384.87 223.907 385.257 224.595 385.945C225.283 386.633 225.67 387.567 225.67 388.54H135.32C135.32 387.567 135.707 386.633 136.395 385.945C137.083 385.257 138.017 384.87 138.99 384.87H139Z" fill="url(#paint34_linear)"/>
<path d="M223.85 385.79C224.21 385.79 224.52 386.28 224.68 386.55C224.955 386.992 225.11 387.499 225.13 388.02C225.13 388.66 226.13 388.67 226.13 388.02C226.13 386.76 225.32 384.9 223.85 384.79C223.21 384.74 223.21 385.74 223.85 385.79Z" fill="#1F65A6"/>
<path d="M324.29 250.68C324.29 248.48 323.08 246.68 321.59 246.68H110.44C108.95 246.68 107.74 248.46 107.74 250.68C107.74 252.87 108.95 254.68 110.44 254.68H321.59C323.08 254.65 324.29 252.87 324.29 250.68Z" fill="url(#paint35_linear)"/>
<path d="M255.45 250.68C255.45 248.48 254.71 246.68 253.79 246.68H109.4C108.48 246.68 107.74 248.46 107.74 250.68C107.74 252.87 108.48 254.68 109.4 254.68H253.79C254.71 254.65 255.45 252.87 255.45 250.68Z" fill="url(#paint36_linear)"/>
<path d="M254.1 247.54C254.63 248.544 254.918 249.658 254.942 250.793C254.967 251.929 254.726 253.054 254.24 254.08C253.97 254.66 254.84 255.16 255.11 254.58C255.689 253.397 255.981 252.094 255.962 250.777C255.943 249.46 255.614 248.166 255 247C254.71 246.43 253.85 246.93 254.14 247.51L254.1 247.54Z" fill="#1F65A6"/>
<path d="M141.3 144.46L138.9 143C138.749 142.988 138.596 143.014 138.458 143.077C138.32 143.14 138.2 143.238 138.11 143.36C136.85 145.05 133.41 148.92 130.82 150.26C128.9 151.26 123.91 145.6 121.34 147.15C119.52 148.25 118.34 151.37 117.84 154.65C117.29 158.38 116.18 168.9 116.18 168.9L103.32 145.62C108.56 142.3 112.54 138.14 114.87 129.7L117.77 122.7C118.286 121.472 118.937 120.305 119.71 119.22C125.16 111.46 134.98 109.03 141.71 113.7C143.271 114.808 144.581 116.233 145.552 117.882C146.524 119.532 147.137 121.368 147.35 123.27C147.459 124.005 147.513 124.747 147.51 125.49C147.45 126.22 147.33 127.09 147.22 128.14C147.118 128.942 146.968 129.737 146.77 130.52C145.77 134.78 143.33 141.2 142.77 143.39C142.691 143.713 142.5 143.998 142.231 144.194C141.961 144.389 141.632 144.484 141.3 144.46Z" fill="#E4B69D"/>
<path d="M145.76 124.53C141.7 123.17 137.35 112.88 134.76 118.74C131.83 125.32 127.76 123.01 127.76 123.01L124.27 125.01C124.27 125.01 118.01 133.53 112.8 135.36C112.8 135.36 115.34 125.77 116.22 122.06C117.16 118.13 119.22 113.25 125.29 110.54C127.211 109.736 129.28 109.351 131.362 109.41C133.443 109.468 135.488 109.969 137.36 110.88H137.48C138.05 111.11 138.62 111.38 139.18 111.66C141.04 112.66 143.18 113.89 144.34 114.12C145.484 114.406 146.695 114.23 147.71 113.63C147.79 113.974 147.793 114.332 147.719 114.678C147.644 115.024 147.495 115.349 147.28 115.63C148.67 115.49 151.51 117.88 152.5 116.9C152.17 119.44 150.67 126.16 145.76 124.53Z" fill="#4A3222"/>
<path d="M127.87 122.94C127.912 122.65 127.886 122.355 127.794 122.077C127.702 121.799 127.547 121.547 127.34 121.34C126.861 120.806 126.223 120.442 125.52 120.301C124.817 120.161 124.087 120.251 123.44 120.56C122.798 120.91 122.245 121.401 121.822 121.998C121.399 122.594 121.118 123.279 121 124C120.799 124.832 120.831 125.704 121.09 126.52C121.223 126.927 121.442 127.301 121.732 127.617C122.021 127.933 122.376 128.183 122.77 128.35L124.57 127.66L126.65 124.66C126.65 124.66 127.83 123.11 127.87 122.94Z" fill="#E4B69D"/>
<path d="M206.74 192.5L184.28 242.69H129.45V246.71H222.24L246.53 192.44L206.74 192.5Z" fill="url(#paint37_linear)"/>
<path d="M135.58 247.17C160.51 247.31 185.43 247.17 210.36 247.17C214.04 247.17 217.73 247.12 221.36 247.17C221.493 247.17 221.62 247.117 221.714 247.023C221.807 246.93 221.86 246.803 221.86 246.67C221.86 246.537 221.807 246.41 221.714 246.316C221.62 246.223 221.493 246.17 221.36 246.17C196.7 245.78 172 246.17 147.36 246.17C143.43 246.17 139.5 246.17 135.56 246.17C135.427 246.17 135.3 246.223 135.206 246.316C135.113 246.41 135.06 246.537 135.06 246.67C135.06 246.803 135.113 246.93 135.206 247.023C135.3 247.117 135.427 247.17 135.56 247.17H135.58Z" fill="#1F65A6"/>
<path d="M215.18 241.74H221.18C221.313 241.74 221.44 241.687 221.534 241.594C221.627 241.5 221.68 241.373 221.68 241.24C221.68 241.107 221.627 240.98 221.534 240.886C221.44 240.793 221.313 240.74 221.18 240.74H215.18C215.047 240.74 214.92 240.793 214.826 240.886C214.733 240.98 214.68 241.107 214.68 241.24C214.68 241.373 214.733 241.5 214.826 241.594C214.92 241.687 215.047 241.74 215.18 241.74Z" fill="#1F65A6"/>
<path d="M259.36 218.9V220.54C259.36 220.705 259.295 220.864 259.179 220.982C259.063 221.1 258.905 221.167 258.74 221.17H258.54L257.35 246.47H244.07L242.7 221.17H242.33C242.165 221.167 242.007 221.1 241.891 220.982C241.775 220.864 241.71 220.705 241.71 220.54V218.9C241.71 218.635 241.815 218.38 242.003 218.193C242.19 218.005 242.445 217.9 242.71 217.9H243.71L244.53 216.52C244.632 216.344 244.777 216.197 244.952 216.093C245.128 215.99 245.327 215.934 245.53 215.93H255.46C255.663 215.936 255.861 215.993 256.036 216.096C256.211 216.199 256.357 216.345 256.46 216.52L257.27 217.9H258.27C258.409 217.887 258.548 217.904 258.68 217.949C258.812 217.993 258.933 218.065 259.036 218.159C259.139 218.253 259.22 218.368 259.276 218.495C259.332 218.623 259.361 218.761 259.36 218.9Z" fill="#FCB32C"/>
<path d="M243 221.64C247.92 221.64 252.84 221.64 257.76 221.64C257.893 221.64 258.02 221.587 258.114 221.493C258.207 221.4 258.26 221.273 258.26 221.14C258.26 221.007 258.207 220.88 258.114 220.786C258.02 220.693 257.893 220.64 257.76 220.64C252.84 220.64 247.92 220.64 243 220.64C242.867 220.64 242.74 220.693 242.646 220.786C242.553 220.88 242.5 221.007 242.5 221.14C242.5 221.273 242.553 221.4 242.646 221.493C242.74 221.587 242.867 221.64 243 221.64Z" fill="#1F65A6"/>
<path d="M244.78 218.42C248.62 218.42 252.47 218.33 256.32 218.42C256.453 218.42 256.58 218.367 256.674 218.273C256.767 218.18 256.82 218.053 256.82 217.92C256.82 217.787 256.767 217.66 256.674 217.566C256.58 217.473 256.453 217.42 256.32 217.42C252.47 217.42 248.62 217.51 244.78 217.42C244.647 217.42 244.52 217.473 244.426 217.566C244.333 217.66 244.28 217.787 244.28 217.92C244.28 218.053 244.333 218.18 244.426 218.273C244.52 218.367 244.647 218.42 244.78 218.42Z" fill="#1F65A6"/>
<path d="M316.26 113.25C316.502 113.307 316.751 113.334 317 113.33L317.37 113.31V114.44H317C316.527 114.463 316.054 114.406 315.6 114.27C315.068 114.801 314.351 115.106 313.6 115.12C313.454 115.12 313.314 115.062 313.211 114.959C313.108 114.856 313.05 114.716 313.05 114.57C313.05 114.424 313.108 114.284 313.211 114.181C313.314 114.078 313.454 114.02 313.6 114.02C313.926 114.014 314.245 113.928 314.53 113.77C313.54 113.04 313.12 111.03 314.21 110.19C315.61 109.11 316.52 111.42 316.42 112.54C316.399 112.783 316.345 113.022 316.26 113.25Z" fill="url(#paint38_linear)"/>
<path d="M350.68 111.4H348.55C347.997 109.306 346.876 107.406 345.31 105.91L344.97 100.91C344.966 100.833 344.942 100.758 344.9 100.693C344.857 100.628 344.798 100.576 344.728 100.543C344.659 100.509 344.581 100.494 344.504 100.501C344.427 100.508 344.353 100.535 344.29 100.58L341.24 102.9C338.315 101.436 335.109 100.618 331.84 100.5C323.19 100.5 317.2 103.72 316.98 112.87V114C317.13 118.11 318.68 120.93 321.15 122.77L321.92 128.28C321.932 128.385 321.983 128.482 322.062 128.552C322.142 128.622 322.244 128.661 322.35 128.66H325.28C325.38 128.661 325.478 128.627 325.555 128.563C325.632 128.498 325.683 128.409 325.7 128.31L326.38 125.09C328.51 125.566 330.688 125.794 332.87 125.77C334.776 125.784 336.678 125.586 338.54 125.18L338.98 128.28C338.992 128.383 339.041 128.479 339.119 128.549C339.196 128.619 339.296 128.658 339.4 128.66H342.34C342.44 128.659 342.536 128.624 342.613 128.56C342.689 128.496 342.741 128.408 342.76 128.31L343.87 122.99C345.86 121.704 347.358 119.783 348.12 117.54H350.67C350.712 117.54 350.753 117.523 350.783 117.493C350.813 117.463 350.83 117.422 350.83 117.38V111.56C350.828 111.52 350.812 111.482 350.784 111.453C350.757 111.423 350.72 111.405 350.68 111.4Z" fill="url(#paint39_linear)"/>
<path d="M343.45 108.69C343.126 108.751 342.839 108.937 342.651 109.209C342.464 109.481 342.392 109.815 342.45 110.14C342.49 110.301 342.563 110.453 342.664 110.585C342.765 110.717 342.892 110.827 343.038 110.908C343.183 110.988 343.344 111.038 343.509 111.054C343.675 111.07 343.842 111.052 344 111C344.149 110.932 344.283 110.833 344.391 110.71C344.499 110.586 344.58 110.442 344.629 110.285C344.677 110.128 344.691 109.962 344.671 109.8C344.65 109.637 344.595 109.48 344.51 109.34C344.41 109.209 344.282 109.102 344.136 109.026C343.991 108.949 343.83 108.905 343.666 108.897C343.501 108.888 343.337 108.915 343.184 108.976C343.031 109.037 342.893 109.131 342.78 109.25" fill="#2161A3"/>
<path d="M343.45 108.27C343.203 108.293 342.964 108.369 342.75 108.493C342.535 108.617 342.35 108.786 342.208 108.988C342.065 109.191 341.968 109.422 341.924 109.666C341.879 109.91 341.888 110.16 341.95 110.4C342.031 110.627 342.158 110.835 342.323 111.01C342.489 111.185 342.688 111.324 342.91 111.418C343.132 111.512 343.371 111.559 343.612 111.556C343.853 111.553 344.091 111.5 344.31 111.4C344.522 111.284 344.707 111.126 344.854 110.934C345 110.742 345.104 110.521 345.16 110.287C345.216 110.052 345.221 109.808 345.177 109.571C345.132 109.333 345.037 109.108 344.9 108.91C344.75 108.723 344.563 108.571 344.349 108.463C344.136 108.356 343.902 108.295 343.663 108.285C343.424 108.276 343.186 108.318 342.964 108.408C342.743 108.499 342.544 108.636 342.38 108.81C342.29 108.915 342.244 109.049 342.249 109.187C342.253 109.325 342.31 109.456 342.407 109.554C342.504 109.652 342.634 109.71 342.771 109.717C342.909 109.723 343.044 109.678 343.15 109.59C343.78 108.98 344.55 110.03 343.81 110.43C343.653 110.492 343.478 110.493 343.32 110.432C343.163 110.371 343.034 110.252 342.96 110.1C342.929 109.995 342.92 109.884 342.933 109.776C342.947 109.667 342.983 109.562 343.04 109.468C343.096 109.374 343.171 109.292 343.261 109.229C343.351 109.166 343.452 109.122 343.56 109.1C344.01 108.99 343.93 108.22 343.45 108.28V108.27Z" fill="#2161A3"/>
<path d="M335.74 103.15C335.504 103.054 335.264 102.971 335.02 102.9H334.86C333.879 102.646 332.873 102.502 331.86 102.47C330.955 102.448 330.049 102.491 329.15 102.6H329C328.696 102.648 328.396 102.715 328.1 102.8V101.8C328.376 101.713 328.657 101.639 328.94 101.58H329.06C329.972 101.431 330.896 101.364 331.82 101.38C332.876 101.391 333.926 101.545 334.94 101.84H335.1C335.318 101.908 335.531 101.988 335.74 102.08V103.15Z" fill="#2161A3"/>
</g>
<defs>
<linearGradient id="paint0_linear" x1="258.32" y1="7.62989" x2="258.32" y2="325.61" gradientUnits="userSpaceOnUse">
<stop offset="0.03" stop-color="#2575DB"/>
<stop offset="0.96" stop-color="#582994"/>
</linearGradient>
<linearGradient id="paint1_linear" x1="230.47" y1="244.62" x2="230.47" y2="382.19" gradientUnits="userSpaceOnUse">
<stop stop-color="#2575DB"/>
<stop offset="0.96" stop-color="#582994"/>
</linearGradient>
<linearGradient id="paint2_linear" x1="257.8" y1="185.3" x2="257.8" y2="278.45" gradientUnits="userSpaceOnUse">
<stop offset="0.03" stop-color="#419AE0"/>
<stop offset="1" stop-color="#2674DB"/>
</linearGradient>
<linearGradient id="paint3_linear" x1="20676.9" y1="19272.8" x2="20676.9" y2="42031.6" gradientUnits="userSpaceOnUse">
<stop offset="0.03" stop-color="#419AE0"/>
<stop offset="1" stop-color="#2674DB"/>
</linearGradient>
<linearGradient id="paint4_linear" x1="22688.6" y1="13210.6" x2="53934" y2="47684.6" gradientUnits="userSpaceOnUse">
<stop offset="0.03" stop-color="#2575DB"/>
<stop offset="0.96" stop-color="#582994"/>
</linearGradient>
<linearGradient id="paint5_linear" x1="27950.6" y1="681.484" x2="33054.9" y2="681.484" gradientUnits="userSpaceOnUse">
<stop offset="0.03" stop-color="#419AE0"/>
<stop offset="1" stop-color="#2674DB"/>
</linearGradient>
<linearGradient id="paint6_linear" x1="23542.9" y1="1024.28" x2="27142.9" y2="1024.28" gradientUnits="userSpaceOnUse">
<stop offset="0.03" stop-color="#419AE0"/>
<stop offset="1" stop-color="#2674DB"/>
</linearGradient>
<linearGradient id="paint7_linear" x1="19023.5" y1="1367.99" x2="21355.4" y2="1367.99" gradientUnits="userSpaceOnUse">
<stop offset="0.03" stop-color="#419AE0"/>
<stop offset="1" stop-color="#2674DB"/>
</linearGradient>
<linearGradient id="paint8_linear" x1="14500.1" y1="1711.62" x2="15837.5" y2="1711.62" gradientUnits="userSpaceOnUse">
<stop offset="0.03" stop-color="#419AE0"/>
<stop offset="1" stop-color="#2674DB"/>
</linearGradient>
<linearGradient id="paint9_linear" x1="3176.12" y1="1366.41" x2="3176.12" y2="1881.7" gradientUnits="userSpaceOnUse">
<stop offset="0.03" stop-color="#419AE0"/>
<stop offset="1" stop-color="#2674DB"/>
</linearGradient>
<linearGradient id="paint10_linear" x1="3222.27" y1="1367.55" x2="3222.27" y2="1881.48" gradientUnits="userSpaceOnUse">
<stop offset="0.03" stop-color="#419AE0"/>
<stop offset="1" stop-color="#2674DB"/>
</linearGradient>
<linearGradient id="paint11_linear" x1="2669.95" y1="1620.57" x2="2669.95" y2="2750.86" gradientUnits="userSpaceOnUse">
<stop offset="0.03" stop-color="#419AE0"/>
<stop offset="1" stop-color="#2674DB"/>
</linearGradient>
<linearGradient id="paint12_linear" x1="6834" y1="3349.21" x2="6834" y2="3858.61" gradientUnits="userSpaceOnUse">
<stop offset="0.03" stop-color="#419AE0"/>
<stop offset="1" stop-color="#2674DB"/>
</linearGradient>
<linearGradient id="paint13_linear" x1="7274.48" y1="1093.51" x2="7274.48" y2="1138.33" gradientUnits="userSpaceOnUse">
<stop offset="0.03" stop-color="#419AE0"/>
<stop offset="1" stop-color="#2674DB"/>
</linearGradient>
<linearGradient id="paint14_linear" x1="1646.53" y1="3906.27" x2="1646.53" y2="4303.28" gradientUnits="userSpaceOnUse">
<stop offset="0.03" stop-color="#419AE0"/>
<stop offset="1" stop-color="#2674DB"/>
</linearGradient>
<linearGradient id="paint15_linear" x1="2925.81" y1="5193.17" x2="2925.81" y2="5979.68" gradientUnits="userSpaceOnUse">
<stop offset="0.03" stop-color="#419AE0"/>
<stop offset="1" stop-color="#2674DB"/>
</linearGradient>
<linearGradient id="paint16_linear" x1="2970.08" y1="5193.17" x2="2970.08" y2="5979.68" gradientUnits="userSpaceOnUse">
<stop offset="0.03" stop-color="#419AE0"/>
<stop offset="1" stop-color="#2674DB"/>
</linearGradient>
<linearGradient id="paint17_linear" x1="5444.52" y1="1684.2" x2="5444.52" y2="1898.39" gradientUnits="userSpaceOnUse">
<stop offset="0.03" stop-color="#419AE0"/>
<stop offset="1" stop-color="#2674DB"/>
</linearGradient>
<linearGradient id="paint18_linear" x1="2895.37" y1="2637.38" x2="2895.37" y2="3337.24" gradientUnits="userSpaceOnUse">
<stop offset="0.03" stop-color="#419AE0"/>
<stop offset="1" stop-color="#2674DB"/>
</linearGradient>
<linearGradient id="paint19_linear" x1="2937.73" y1="2215.35" x2="2937.73" y2="2646.95" gradientUnits="userSpaceOnUse">
<stop offset="0.03" stop-color="#419AE0"/>
<stop offset="1" stop-color="#2674DB"/>
</linearGradient>
<linearGradient id="paint20_linear" x1="7163.74" y1="1761.3" x2="7163.74" y2="1998.77" gradientUnits="userSpaceOnUse">
<stop offset="0.03" stop-color="#419AE0"/>
<stop offset="1" stop-color="#2674DB"/>
</linearGradient>
<linearGradient id="paint21_linear" x1="5026.82" y1="851.203" x2="5026.82" y2="978.665" gradientUnits="userSpaceOnUse">
<stop offset="0.03" stop-color="#419AE0"/>
<stop offset="1" stop-color="#2674DB"/>
</linearGradient>
<linearGradient id="paint22_linear" x1="18278" y1="193.123" x2="18278" y2="196.638" gradientUnits="userSpaceOnUse">
<stop offset="0.03" stop-color="#419AE0"/>
<stop offset="1" stop-color="#2674DB"/>
</linearGradient>
<linearGradient id="paint23_linear" x1="2876.13" y1="568.863" x2="2876.13" y2="644.727" gradientUnits="userSpaceOnUse">
<stop offset="0.03" stop-color="#419AE0"/>
<stop offset="1" stop-color="#2674DB"/>
</linearGradient>
<linearGradient id="paint24_linear" x1="1695.98" y1="415.377" x2="1695.98" y2="448.439" gradientUnits="userSpaceOnUse">
<stop offset="0.03" stop-color="#419AE0"/>
<stop offset="1" stop-color="#2674DB"/>
</linearGradient>
<linearGradient id="paint25_linear" x1="1796" y1="415.377" x2="1796" y2="448.439" gradientUnits="userSpaceOnUse">
<stop offset="0.03" stop-color="#419AE0"/>
<stop offset="1" stop-color="#2674DB"/>
</linearGradient>
<linearGradient id="paint26_linear" x1="1812.95" y1="415.377" x2="1812.95" y2="448.439" gradientUnits="userSpaceOnUse">
<stop offset="0.03" stop-color="#419AE0"/>
<stop offset="1" stop-color="#2674DB"/>
</linearGradient>
<linearGradient id="paint27_linear" x1="1827.67" y1="415.377" x2="1827.67" y2="448.439" gradientUnits="userSpaceOnUse">
<stop offset="0.03" stop-color="#419AE0"/>
<stop offset="1" stop-color="#2674DB"/>
</linearGradient>
<linearGradient id="paint28_linear" x1="1820.44" y1="375.918" x2="1820.44" y2="409.038" gradientUnits="userSpaceOnUse">
<stop offset="0.03" stop-color="#419AE0"/>
<stop offset="1" stop-color="#2674DB"/>
</linearGradient>
<linearGradient id="paint29_linear" x1="229.64" y1="5.33003" x2="229.64" y2="107.33" gradientUnits="userSpaceOnUse">
<stop stop-color="#2674DB"/>
<stop offset="0.99" stop-color="#93278F"/>
</linearGradient>
<linearGradient id="paint30_linear" x1="31.54" y1="284.12" x2="31.54" y2="387.02" gradientUnits="userSpaceOnUse">
<stop offset="0.03" stop-color="#A3E7FC"/>
<stop offset="1" stop-color="#CAE3F0"/>
</linearGradient>
<linearGradient id="paint31_linear" x1="1859.04" y1="29964.9" x2="1859.04" y2="40669.6" gradientUnits="userSpaceOnUse">
<stop offset="0.03" stop-color="#A3E7FC"/>
<stop offset="1" stop-color="#CAE3F0"/>
</linearGradient>
<linearGradient id="paint32_linear" x1="12688.2" y1="19218.3" x2="12688.2" y2="27590.4" gradientUnits="userSpaceOnUse">
<stop offset="0.03" stop-color="#A3E7FC"/>
<stop offset="1" stop-color="#CAE3F0"/>
</linearGradient>
<linearGradient id="paint33_linear" x1="180.5" y1="388.6" x2="180.5" y2="253.17" gradientUnits="userSpaceOnUse">
<stop stop-color="#CAE3F0"/>
<stop offset="1" stop-color="#A3E7FC"/>
</linearGradient>
<linearGradient id="paint34_linear" x1="16442.6" y1="-1031.8" x2="16442.6" y2="-1018.59" gradientUnits="userSpaceOnUse">
<stop stop-color="#CAE3F0"/>
<stop offset="1" stop-color="#A3E7FC"/>
</linearGradient>
<linearGradient id="paint35_linear" x1="216.02" y1="231.94" x2="216.02" y2="270.32" gradientUnits="userSpaceOnUse">
<stop stop-color="#A3E7FC"/>
<stop offset="0.97" stop-color="#7AD5F0"/>
</linearGradient>
<linearGradient id="paint36_linear" x1="-29699.5" y1="2252.12" x2="-24554.7" y2="2252.12" gradientUnits="userSpaceOnUse">
<stop offset="0.03" stop-color="#A3E7FC"/>
<stop offset="1" stop-color="#CAE3F0"/>
</linearGradient>
<linearGradient id="paint37_linear" x1="15285.5" y1="12108.5" x2="28993.2" y2="12108.5" gradientUnits="userSpaceOnUse">
<stop offset="0.03" stop-color="#A3E7FC"/>
<stop offset="1" stop-color="#CAE3F0"/>
</linearGradient>
<linearGradient id="paint38_linear" x1="1674.98" y1="684.202" x2="1674.98" y2="706.607" gradientUnits="userSpaceOnUse">
<stop offset="0.03" stop-color="#419AE0"/>
<stop offset="1" stop-color="#2674DB"/>
</linearGradient>
<linearGradient id="paint39_linear" x1="333.91" y1="126.08" x2="333.91" y2="107.91" gradientUnits="userSpaceOnUse">
<stop stop-color="#2674DB"/>
<stop offset="1" stop-color="#419AE0"/>
</linearGradient>
<clipPath id="clip0">
<rect width="480" height="400" fill="white"/>
</clipPath>
</defs>
</svg>
